# Blender v2.79 (sub 0) OBJ File: ''
# www.blender.org
mtllib amon.mtl
o Circle
v 0.016493 -0.000000 0.108092
v 0.021833 0.092179 0.106812
v 0.015300 0.092179 0.122584
v 0.011524 -0.000000 0.120088
v -0.000472 0.092179 0.129117
v -0.000472 -0.000000 0.125057
v -0.016243 0.092179 0.122584
v -0.012467 -0.000000 0.120088
v -0.022776 0.092179 0.106812
v -0.017436 -0.000000 0.108092
v -0.000472 -0.000000 0.091128
v -0.000472 0.092179 0.084507
v 0.015300 0.092179 0.091040
v 0.011524 -0.000000 0.096097
v -0.016243 0.092179 0.091040
v -0.012467 -0.000000 0.096097
v -0.020137 0.120985 0.088427
v -0.000472 0.120985 0.080281
v -0.028283 0.120985 0.108092
v 0.019194 0.120985 0.127758
v -0.000472 0.120985 0.135903
v 0.027340 0.120985 0.108092
v -0.020137 0.120985 0.127758
v 0.019194 0.120985 0.088427
v -0.000472 0.159073 0.101371
v -0.022776 -0.094049 0.106812
v -0.016243 -0.094049 0.122584
v -0.000472 -0.094049 0.129117
v 0.015300 -0.094049 0.122584
v 0.021833 -0.094049 0.106812
v -0.000472 -0.094049 0.084507
v -0.016243 -0.094049 0.091040
v 0.015300 -0.094049 0.091040
v 0.019194 -0.122855 0.088427
v -0.000472 -0.122855 0.080281
v 0.027340 -0.122855 0.108092
v -0.020137 -0.122855 0.127758
v -0.000472 -0.122855 0.135903
v -0.028283 -0.122855 0.108092
v 0.019194 -0.122855 0.127758
v -0.020137 -0.122855 0.088427
v -0.000472 -0.160942 0.101371
v -0.012170 0.027116 0.710568
v -0.012170 -0.023184 0.714715
v -0.012170 -0.022884 0.839157
v -0.012170 0.021128 0.907944
v -0.012170 0.031408 0.551559
v -0.012170 -0.028872 0.558933
v -0.012170 -0.039351 0.113755
v -0.012170 0.040589 0.113709
v 0.011226 0.027116 0.710568
v 0.011226 0.021128 0.907944
v 0.011226 -0.022884 0.839157
v 0.011226 -0.023184 0.714715
v 0.011226 -0.028872 0.558933
v 0.011226 0.031408 0.551559
v 0.011226 -0.039351 0.113755
v 0.011226 0.040589 0.113709
v -0.000472 0.047947 0.551559
v -0.000472 0.062081 0.113709
v -0.000472 -0.060978 0.113755
v -0.000472 -0.044846 0.558933
v -0.000472 -0.036089 0.714715
v -0.000472 -0.035628 0.839157
v -0.000472 0.032123 0.950232
v -0.000472 0.041341 0.710568
v -0.018742 0.017586 0.295173
v -0.022692 0.008672 0.260190
v -0.022692 -0.004061 0.260179
v -0.018742 -0.013105 0.295152
v -0.016312 0.046607 0.105269
v -0.015831 -0.039512 0.105584
v -0.020146 0.002539 0.327622
v 0.017857 0.017586 0.295173
v 0.017857 -0.013105 0.295152
v 0.021808 -0.004061 0.260179
v 0.021808 0.008672 0.260190
v 0.014886 0.046607 0.105269
v 0.014886 -0.039512 0.105584
v 0.019262 0.002539 0.327622
v -0.000450 0.060287 0.094142
v -0.000450 -0.053043 0.094556
v -0.000442 -0.004761 0.262709
v -0.000442 -0.018415 0.299769
v -0.000442 0.022777 0.299796
v -0.000442 0.009295 0.262720
v -0.000442 0.002554 0.340243
v 0.019795 0.023359 0.092661
v -0.000472 0.003093 0.107195
v 0.028189 0.003093 0.092661
v -0.000472 -0.025568 0.092661
v -0.000472 -0.008397 0.072215
v 0.007653 -0.005032 0.072215
v 0.019795 -0.017174 0.092661
v -0.020738 -0.017174 0.092661
v -0.020738 0.023359 0.092661
v -0.000472 0.031754 0.092661
v -0.029133 0.003093 0.092661
v 0.007653 0.011217 0.072215
v 0.007653 0.011217 0.023229
v -0.000472 0.014583 0.023229
v -0.000472 0.014583 0.072215
v -0.011961 0.003093 0.072215
v -0.008596 -0.005032 0.072215
v -0.008596 0.011217 0.072215
v 0.011018 0.003093 0.072215
v -0.011961 0.003093 0.023229
v -0.019505 0.003093 -0.020804
v -0.013930 -0.010366 -0.020804
v -0.008596 -0.005032 0.023229
v 0.007653 -0.005032 0.023229
v 0.011018 0.003093 0.023229
v -0.000472 -0.008397 0.023229
v -0.008596 0.011217 0.023229
v 0.012987 -0.010366 -0.020804
v 0.008526 -0.005905 -0.090718
v 0.012253 0.003093 -0.090718
v 0.018561 0.003093 -0.020804
v -0.000472 0.022126 -0.020804
v -0.013930 0.016551 -0.020804
v 0.012987 0.016551 -0.020804
v -0.000472 -0.015940 -0.020804
v -0.000472 0.015818 -0.090718
v -0.000472 0.036802 -0.127596
v -0.024308 0.026929 -0.127596
v -0.009469 0.012091 -0.090718
v -0.009469 -0.005905 -0.090718
v -0.000472 -0.009632 -0.090718
v -0.013196 0.003093 -0.090718
v 0.008526 0.012091 -0.090718
v -0.000472 0.003093 -0.157979
v -0.034181 0.003093 -0.127596
v 0.023365 0.026929 -0.127596
v 0.023365 -0.020743 -0.127596
v 0.033238 0.003093 -0.127596
v -0.024308 -0.020743 -0.127596
v -0.000472 -0.030617 -0.127596
v -0.014394 0.062081 0.113709
vt 0.602388 0.199483
vt 0.600846 0.092708
vt 0.619187 0.092710
vt 0.616338 0.199485
vt 0.877571 0.376715
vt 0.871782 0.290833
vt 0.891536 0.290833
vt 0.892595 0.376715
vt 0.731603 0.197372
vt 0.730536 0.098759
vt 0.750045 0.097645
vt 0.746441 0.196525
vt 0.652942 0.199482
vt 0.650094 0.092706
vt 0.668435 0.092702
vt 0.666892 0.199478
vt 0.527484 0.199485
vt 0.527484 0.092709
vt 0.545752 0.092712
vt 0.541378 0.199487
vt 0.686630 0.092706
vt 0.680731 0.199482
vt 0.588549 0.199485
vt 0.582651 0.092710
vt 0.513589 0.199487
vt 0.509215 0.092712
vt 0.504704 0.059344
vt 0.527484 0.059340
vt 0.667013 0.059332
vt 0.689700 0.059337
vt 0.869224 0.260290
vt 0.893855 0.260290
vt 0.602268 0.059339
vt 0.625136 0.059342
vt 0.644144 0.059337
vt 0.579580 0.059342
vt 0.550263 0.059344
vt 0.728752 0.070094
vt 0.753078 0.068704
vt 0.594791 0.015232
vt 0.674487 0.015232
vt 0.737828 0.015232
vt 0.527484 0.015232
vt 0.708708 0.065132
vt 0.668435 0.308414
vt 0.650094 0.308418
vt 0.750045 0.300069
vt 0.730536 0.301183
vt 0.714461 0.297204
vt 0.719377 0.194346
vt 0.619187 0.308423
vt 0.600846 0.308420
vt 0.527484 0.308421
vt 0.509215 0.308424
vt 0.582651 0.308423
vt 0.686630 0.308418
vt 0.545752 0.308424
vt 0.550263 0.341789
vt 0.527484 0.341786
vt 0.602268 0.341785
vt 0.579580 0.341788
vt 0.753078 0.333751
vt 0.728752 0.335140
vt 0.667013 0.341777
vt 0.644144 0.341782
vt 0.625136 0.341788
vt 0.689700 0.341782
vt 0.504704 0.341789
vt 0.708708 0.330179
vt 0.674487 0.385913
vt 0.594791 0.385913
vt 0.797639 0.704692
vt 0.817683 0.760768
vt 0.777364 0.718678
vt 0.527484 0.385913
vt 0.768735 0.737916
vt 0.817683 0.704150
vt 0.378100 0.755373
vt 0.436178 0.762055
vt 0.431180 0.906106
vt 0.377656 0.984094
vt 0.379074 0.571134
vt 0.448585 0.581923
vt 0.477354 0.066947
vt 0.384807 0.063906
vt 0.357401 0.755376
vt 0.357845 0.984097
vt 0.304321 0.906108
vt 0.299323 0.762057
vt 0.286915 0.581925
vt 0.356427 0.571136
vt 0.258146 0.066948
vt 0.350693 0.063907
vt 0.180257 0.477355
vt 0.199404 0.476867
vt 0.205138 0.984095
vt 0.180257 0.984768
vt 0.287153 0.980116
vt 0.262116 0.981054
vt 0.233346 0.466077
vt 0.251840 0.465350
vt 0.235880 0.285333
vt 0.220939 0.285945
vt 0.215941 0.141895
vt 0.230696 0.141289
vt 0.183677 0.015232
vt 0.197986 0.063906
vt 0.198430 0.292627
vt 0.181962 0.293029
vt 0.861515 0.702108
vt 0.875065 0.727002
vt 0.875065 0.819599
vt 0.861515 0.844650
vt 0.261141 0.124791
vt 0.241721 0.123140
vt 0.204328 0.039621
vt 0.202929 -0.008006
vt 0.079844 0.858104
vt 0.094601 0.858711
vt 0.012013 0.984768
vt 0.026319 0.936093
vt 0.097249 0.533922
vt 0.115746 0.534650
vt 0.099786 0.714667
vt 0.084841 0.714053
vt 0.847965 0.727002
vt 0.847965 0.819599
vt 0.026763 0.707372
vt 0.010298 0.706971
vt 0.008592 0.522645
vt 0.027737 0.523132
vt 0.126018 0.018945
vt 0.151059 0.019884
vt 0.008592 0.015232
vt 0.033471 0.015904
vt 0.727832 0.453881
vt 0.717660 0.494483
vt 0.702911 0.494550
vt 0.692283 0.454036
vt 0.762261 0.673687
vt 0.662506 0.673687
vt 0.710266 0.416376
vt 0.566706 0.453882
vt 0.602256 0.454035
vt 0.591631 0.494549
vt 0.576882 0.494483
vt 0.532289 0.673685
vt 0.632043 0.673685
vt 0.584272 0.416376
vt 0.656980 0.704148
vt 0.674654 0.720097
vt 0.674097 0.819849
vt 0.656247 0.835419
vt 0.894459 0.184413
vt 0.920347 0.184118
vt 0.911270 0.225206
vt 0.889831 0.229827
vt 0.901408 0.454792
vt 0.921728 0.463040
vt 0.923527 0.505051
vt 0.898078 0.500279
vt 0.901483 0.416376
vt 0.923527 0.431953
vt 0.710983 0.930555
vt 0.688312 0.931812
vt 0.688312 0.893048
vt 0.712372 0.880820
vt 0.975142 0.190558
vt 0.954277 0.174361
vt 0.950810 0.021809
vt 0.975142 0.015232
vt 0.911236 0.664325
vt 0.894366 0.671075
vt 0.872235 0.501526
vt 0.875276 0.661855
vt 0.900516 0.020973
vt 0.920346 0.015232
vt 0.869224 0.178663
vt 0.727990 0.927809
vt 0.731036 0.888737
vt 0.729130 0.806483
vt 0.705117 0.815740
vt 0.706211 0.776538
vt 0.728753 0.776538
vt 0.879543 0.460142
vt 0.869224 0.220719
vt 0.638517 0.719895
vt 0.638517 0.819651
vt 0.806812 0.300961
vt 0.788416 0.330904
vt 0.783541 0.301619
vt 0.967104 0.867983
vt 0.964019 0.839792
vt 0.973024 0.837984
vt 0.989567 0.863472
vt 0.925391 0.369297
vt 0.945428 0.339243
vt 0.945428 0.376120
vt 0.911028 0.348420
vt 0.823266 0.343782
vt 0.823266 0.318426
vt 0.910753 0.325719
vt 0.806812 0.362177
vt 0.783541 0.362835
vt 0.973025 0.446362
vt 0.969947 0.500721
vt 0.960942 0.498916
vt 0.964019 0.444557
vt 0.814166 0.416470
vt 0.814155 0.439960
vt 0.804742 0.439922
vt 0.790686 0.416376
vt 0.967103 0.416376
vt 0.954308 0.444905
vt 0.942879 0.417245
vt 0.989568 0.420878
vt 0.787676 0.270498
vt 0.801735 0.246951
vt 0.811147 0.246914
vt 0.811154 0.270405
vt 0.942879 0.867108
vt 0.954307 0.839442
vt 0.837636 0.416376
vt 0.823563 0.439922
vt 0.820557 0.246951
vt 0.834626 0.270498
vt 0.814155 0.496700
vt 0.814159 0.547787
vt 0.798566 0.547724
vt 0.804742 0.496662
vt 0.801735 0.190211
vt 0.811147 0.190174
vt 0.951230 0.785095
vt 0.960941 0.785446
vt 0.823563 0.496662
vt 0.820557 0.190211
vt 0.969946 0.783638
vt 0.951231 0.499265
vt 0.795558 0.139150
vt 0.800723 0.058220
vt 0.811147 0.058179
vt 0.811150 0.139088
vt 0.958966 0.545366
vt 0.942879 0.545943
vt 0.973884 0.548355
vt 0.942879 0.738434
vt 0.958966 0.739015
vt 0.829745 0.547724
vt 0.826737 0.139150
vt 0.720830 0.704148
vt 0.721945 0.746074
vt 0.705117 0.746074
vt 0.710672 0.704148
vt 0.802949 0.832196
vt 0.768735 0.814700
vt 0.787136 0.791231
vt 0.809895 0.823337
vt 0.943158 0.659041
vt 0.953913 0.659429
vt 0.824575 0.628653
vt 0.814155 0.628695
vt 0.821568 0.058220
vt 0.963886 0.657427
vt 0.973884 0.736020
vt 0.803730 0.628653
vt 0.953912 0.624965
vt 0.943158 0.625351
vt 0.963886 0.626963
vt 0.956784 0.331567
vt 0.995821 0.331567
vt 0.968213 0.359180
vt 0.803914 0.842806
vt 0.771291 0.842806
vt 0.783541 0.015341
vt 0.811155 0.015232
vt 0.975999 0.245551
vt 0.933703 0.245551
vt 0.930491 0.220864
vt 0.974787 0.236232
vt 0.841772 0.671534
vt 0.814168 0.671644
vt 0.838761 0.015341
vt 0.945056 0.194861
vt 0.980285 0.226416
vt 0.786552 0.671534
vt 0.958098 0.303627
vt 0.930491 0.276014
vt 0.969528 0.276014
vt 0.844186 0.924995
vt 0.818529 0.888207
vt 0.865047 0.907936
vt 0.995821 0.370623
vt 0.968225 0.902494
vt 0.942575 0.939259
vt 0.942575 0.890051
vt 0.989089 0.919547
vt 0.930491 0.315070
vt 0.818529 0.937428
vn 0.9228 -0.0482 0.3822
vn 0.3824 -0.0407 0.9231
vn -0.3824 -0.0407 0.9231
vn -0.9228 -0.0482 0.3822
vn 0.3818 -0.0662 -0.9219
vn -0.9223 -0.0587 -0.3820
vn 0.9223 -0.0587 -0.3820
vn -0.3819 -0.0662 -0.9218
vn -0.3792 -0.1343 -0.9155
vn -0.9123 -0.1576 -0.3779
vn 0.3739 -0.2127 0.9028
vn 0.9070 -0.1901 0.3757
vn -0.9070 -0.1901 0.3757
vn 0.9123 -0.1576 -0.3779
vn 0.3792 -0.1343 -0.9155
vn -0.3739 -0.2127 0.9027
vn 0.7897 0.5189 -0.3271
vn -0.7897 0.5189 -0.3271
vn -0.2933 0.6421 0.7083
vn 0.7419 0.5960 0.3073
vn 0.3407 0.4554 -0.8225
vn -0.3407 0.4554 -0.8225
vn -0.7419 0.5959 0.3073
vn 0.2933 0.6421 0.7083
vn -0.9228 0.0472 0.3823
vn -0.3824 0.0399 0.9231
vn 0.3824 0.0399 0.9231
vn 0.9228 0.0472 0.3823
vn -0.3819 0.0649 -0.9219
vn 0.9223 0.0576 -0.3821
vn -0.9223 0.0576 -0.3821
vn 0.3819 0.0649 -0.9219
vn 0.3792 0.1343 -0.9155
vn 0.9123 0.1576 -0.3779
vn -0.3739 0.2127 0.9027
vn -0.9070 0.1901 0.3757
vn 0.9070 0.1901 0.3757
vn -0.9123 0.1576 -0.3779
vn -0.3792 0.1343 -0.9155
vn 0.3739 0.2127 0.9028
vn -0.7897 -0.5189 -0.3271
vn 0.7897 -0.5190 -0.3271
vn 0.2933 -0.6421 0.7082
vn -0.7419 -0.5960 0.3073
vn -0.3407 -0.4554 -0.8225
vn 0.3407 -0.4554 -0.8225
vn 0.7419 -0.5960 0.3073
vn -0.2933 -0.6421 0.7082
vn -1.0000 -0.0000 0.0000
vn 1.0000 0.0000 0.0000
vn 0.8517 0.5239 0.0139
vn 0.8490 -0.5282 0.0158
vn 0.7388 -0.6739 0.0021
vn 0.7518 0.6590 0.0229
vn 0.7958 0.6052 0.0207
vn 0.0000 -0.0005 -1.0000
vn 0.7767 -0.6292 0.0292
vn 0.7132 -0.5954 0.3700
vn -0.7132 -0.5954 0.3700
vn -0.7767 -0.6292 0.0292
vn -0.7958 0.6052 0.0207
vn -0.7518 0.6590 0.0229
vn -0.7388 -0.6739 0.0021
vn -0.8490 -0.5282 0.0158
vn -0.8517 0.5239 0.0139
vn -0.9937 -0.0001 0.1122
vn -0.9991 -0.0050 -0.0428
vn -0.9991 0.0000 -0.0432
vn 0.9937 -0.0001 0.1122
vn 0.9990 -0.0001 -0.0447
vn 0.9991 0.0000 -0.0432
vn 0.5855 -0.0030 -0.8106
vn 0.0890 -0.9514 -0.2949
vn 0.0852 0.9528 -0.2915
vn 0.3039 0.8599 0.4102
vn 0.3100 -0.8521 0.4217
vn 0.2976 -0.9256 0.2338
vn 0.2947 0.9230 0.2474
vn -0.2908 0.9240 0.2483
vn -0.2973 -0.9257 0.2339
vn -0.3100 -0.8521 0.4217
vn -0.3039 0.8599 0.4102
vn -0.0852 0.9528 -0.2915
vn -0.0890 -0.9514 -0.2949
vn -0.5784 -0.0044 -0.8157
vn 0.4445 0.1841 0.8766
vn 0.3023 -0.7299 -0.6130
vn -0.1841 -0.4445 0.8766
vn 0.1841 -0.4445 0.8766
vn -0.1841 0.4445 0.8766
vn 0.4445 -0.1841 0.8766
vn -0.4445 0.1841 0.8766
vn -0.4445 -0.1841 0.8766
vn 0.1841 0.4445 0.8766
vn 0.3827 0.9239 0.0000
vn -0.7299 -0.3023 -0.6130
vn -0.3024 0.7299 -0.6130
vn 0.3024 0.7299 -0.6130
vn 0.7299 -0.3023 -0.6130
vn -0.3023 -0.7299 -0.6130
vn -0.7299 0.3024 -0.6130
vn 0.7299 0.3023 -0.6130
vn -0.9125 -0.3780 0.1563
vn 0.9239 -0.3826 -0.0000
vn -0.3827 -0.9239 -0.0000
vn -0.9239 0.3827 0.0000
vn 0.9239 0.3827 0.0000
vn 0.3826 -0.9239 -0.0000
vn -0.9239 -0.3826 -0.0000
vn -0.3828 0.9238 0.0000
vn 0.9207 -0.3813 -0.0831
vn -0.3780 0.9125 0.1563
vn 0.3780 0.9125 0.1563
vn 0.9125 -0.3779 0.1563
vn -0.3780 -0.9125 0.1563
vn -0.9125 0.3780 0.1563
vn 0.9125 0.3780 0.1563
vn 0.3779 -0.9125 0.1563
vn -0.3387 0.8178 0.4653
vn -0.3814 -0.9207 -0.0831
vn -0.9207 0.3814 -0.0831
vn 0.9207 0.3813 -0.0831
vn 0.3813 -0.9207 -0.0831
vn -0.9207 -0.3814 -0.0831
vn -0.3814 0.9207 -0.0831
vn 0.3814 0.9207 -0.0831
vn -0.6452 0.2672 -0.7158
vn 0.3387 0.8178 0.4653
vn 0.8178 -0.3387 0.4653
vn -0.3388 -0.8177 0.4653
vn -0.8178 0.3387 0.4653
vn 0.8178 0.3387 0.4653
vn 0.3387 -0.8178 0.4653
vn -0.8178 -0.3387 0.4653
vn 0.6452 0.2672 -0.7158
vn 0.2672 -0.6452 -0.7158
vn -0.6452 -0.2672 -0.7158
vn -0.2672 0.6452 -0.7158
vn 0.2672 0.6452 -0.7158
vn 0.6452 -0.2672 -0.7158
vn -0.2673 -0.6451 -0.7158
usemtl Material.001
s 1
f 1/1/1 2/2/1 3/3/1 4/4/1
f 4/5/2 3/6/2 5/7/2 6/8/2
f 6/9/3 5/10/3 7/11/3 8/12/3
f 8/13/4 7/14/4 9/15/4 10/16/4
f 11/17/5 12/18/5 13/19/5 14/20/5
f 10/16/6 9/15/6 15/21/6 16/22/6
f 14/23/7 13/24/7 2/2/7 1/1/7
f 16/25/8 15/26/8 12/18/8 11/17/8
f 15/26/9 17/27/9 18/28/9 12/18/9
f 9/15/10 19/29/10 17/30/10 15/21/10
f 3/6/11 20/31/11 21/32/11 5/7/11
f 2/2/12 22/33/12 20/34/12 3/3/12
f 7/14/13 23/35/13 19/29/13 9/15/13
f 13/24/14 24/36/14 22/33/14 2/2/14
f 12/18/15 18/28/15 24/37/15 13/19/15
f 5/10/16 21/38/16 23/39/16 7/11/16
f 24/36/17 25/40/17 22/33/17
f 19/29/18 25/41/18 17/30/18
f 21/38/19 25/42/19 23/39/19
f 22/33/20 25/40/20 20/34/20
f 18/28/21 25/43/21 24/37/21
f 17/27/22 25/43/22 18/28/22
f 23/35/23 25/41/23 19/29/23
f 20/44/24 25/42/24 21/38/24
f 10/16/25 26/45/25 27/46/25 8/13/25
f 8/12/26 27/47/26 28/48/26 6/9/26
f 6/9/27 28/48/27 29/49/27 4/50/27
f 4/4/28 29/51/28 30/52/28 1/1/28
f 11/17/29 31/53/29 32/54/29 16/25/29
f 1/1/30 30/52/30 33/55/30 14/23/30
f 16/22/31 32/56/31 26/45/31 10/16/31
f 14/20/32 33/57/32 31/53/32 11/17/32
f 33/57/33 34/58/33 35/59/33 31/53/33
f 30/52/34 36/60/34 34/61/34 33/55/34
f 27/47/35 37/62/35 38/63/35 28/48/35
f 26/45/36 39/64/36 37/65/36 27/46/36
f 29/51/37 40/66/37 36/60/37 30/52/37
f 32/56/38 41/67/38 39/64/38 26/45/38
f 31/53/39 35/59/39 41/68/39 32/54/39
f 28/48/40 38/63/40 40/69/40 29/49/40
f 41/67/41 42/70/41 39/64/41
f 36/60/42 42/71/42 34/61/42
f 38/72/43 42/73/43 40/74/43
f 39/64/44 42/70/44 37/65/44
f 35/59/45 42/75/45 41/68/45
f 34/58/46 42/75/46 35/59/46
f 40/74/47 42/73/47 36/76/47
f 37/77/48 42/73/48 38/72/48
f 43/78/49 44/79/49 45/80/49 46/81/49
f 44/79/49 43/78/49 47/82/49 48/83/49
f 49/84/49 48/83/49 47/82/49 50/85/49
f 51/86/50 52/87/50 53/88/50 54/89/50
f 54/89/50 55/90/50 56/91/50 51/86/50
f 57/92/50 58/93/50 56/91/50 55/90/50
f 59/94/51 56/95/51 58/96/51 60/97/51
f 61/98/52 57/99/52 55/100/52 62/101/52
f 63/102/53 54/103/53 53/104/53 64/105/53
f 65/106/54 52/107/54 51/108/54 66/109/54
f 66/109/55 51/108/55 56/95/55 59/94/55
f 60/110/56 58/111/56 57/112/56 61/113/56
f 62/101/57 55/100/57 54/103/57 63/102/57
f 64/114/58 53/115/58 52/116/58 65/117/58
f 45/118/59 64/119/59 65/120/59 46/121/59
f 48/122/60 62/123/60 63/124/60 44/125/60
f 50/126/56 60/110/56 61/113/56 49/127/56
f 43/128/61 66/129/61 59/130/61 47/131/61
f 46/121/62 65/120/62 66/129/62 43/128/62
f 44/125/63 63/124/63 64/119/63 45/118/63
f 49/132/64 61/133/64 62/123/64 48/122/64
f 47/131/65 59/130/65 60/134/65 50/135/65
f 67/136/66 68/137/66 69/138/66 70/139/66
f 71/140/67 72/141/67 69/138/67 68/137/67
f 73/142/68 67/136/68 70/139/68
f 74/143/69 75/144/69 76/145/69 77/146/69
f 78/147/70 77/146/70 76/145/70 79/148/70
f 80/149/71 75/144/71 74/143/71
f 81/150/72 78/151/72 79/152/72 82/153/72
f 83/154/73 76/155/73 75/156/73 84/157/73
f 85/158/74 74/159/74 77/160/74 86/161/74
f 87/162/75 80/163/75 74/159/75 85/158/75
f 84/164/76 75/165/76 80/166/76 87/167/76
f 82/168/77 79/169/77 76/170/77 83/171/77
f 86/161/78 77/160/78 78/172/78 81/173/78
f 68/174/79 86/161/79 81/173/79 71/175/79
f 72/176/80 82/177/80 83/154/80 69/178/80
f 70/179/81 84/164/81 87/167/81 73/180/81
f 73/181/82 87/182/82 85/183/82 67/184/82
f 67/185/83 85/158/83 86/161/83 68/174/83
f 69/178/84 83/154/84 84/157/84 70/186/84
f 71/187/85 81/150/85 82/153/85 72/188/85
f 88/189/86 89/190/86 90/191/86
f 91/192/87 92/193/87 93/194/87 94/195/87
f 91/196/88 89/197/88 95/198/88
f 94/199/89 89/197/89 91/196/89
f 96/200/90 89/190/90 97/201/90
f 90/202/91 89/197/91 94/199/91
f 98/203/92 89/190/92 96/200/92
f 95/204/93 89/190/93 98/203/93
f 97/201/94 89/190/94 88/189/94
f 99/205/95 100/206/95 101/207/95 102/208/95
f 98/209/96 103/210/96 104/211/96 95/212/96
f 97/213/97 102/208/97 105/214/97 96/215/97
f 88/216/98 99/205/98 102/208/98 97/213/98
f 94/217/99 93/218/99 106/219/99 90/220/99
f 95/221/100 104/222/100 92/193/100 91/192/100
f 96/223/101 105/224/101 103/210/101 98/209/101
f 90/220/102 106/219/102 99/225/102 88/226/102
f 107/227/103 108/228/103 109/229/103 110/230/103
f 93/218/104 111/231/104 112/232/104 106/219/104
f 104/222/105 110/233/105 113/234/105 92/193/105
f 105/224/106 114/235/106 107/227/106 103/210/106
f 106/219/107 112/232/107 100/236/107 99/225/107
f 92/193/108 113/234/108 111/237/108 93/194/108
f 103/210/109 107/227/109 110/230/109 104/211/109
f 102/208/110 101/207/110 114/238/110 105/214/110
f 115/239/111 116/240/111 117/241/111 118/242/111
f 101/207/112 119/243/112 120/244/112 114/238/112
f 100/206/113 121/245/113 119/243/113 101/207/113
f 111/231/114 115/239/114 118/242/114 112/232/114
f 110/233/115 109/246/115 122/247/115 113/234/115
f 114/235/116 120/248/116 108/228/116 107/227/116
f 112/232/117 118/242/117 121/249/117 100/236/117
f 113/250/118 122/251/118 115/252/118 111/253/118
f 123/254/119 124/255/119 125/256/119 126/257/119
f 109/246/120 127/258/120 128/259/120 122/247/120
f 120/248/121 126/260/121 129/261/121 108/228/121
f 118/242/122 117/241/122 130/262/122 121/249/122
f 122/247/123 128/259/123 116/263/123 115/264/123
f 108/228/124 129/261/124 127/265/124 109/229/124
f 119/243/125 123/266/125 126/267/125 120/244/125
f 121/245/126 130/268/126 123/266/126 119/243/126
f 125/269/127 131/270/127 132/271/127
f 130/272/128 133/273/128 124/255/128 123/254/128
f 116/240/129 134/274/129 135/275/129 117/241/129
f 127/276/130 136/277/130 137/278/130 128/279/130
f 126/260/131 125/280/131 132/281/131 129/261/131
f 117/241/132 135/275/132 133/282/132 130/262/132
f 128/279/133 137/278/133 134/283/133 116/284/133
f 129/261/134 132/281/134 136/285/134 127/265/134
f 135/286/135 131/287/135 133/288/135
f 137/289/136 131/290/136 134/291/136
f 132/271/137 131/270/137 136/292/137
f 124/293/138 131/294/138 125/295/138
f 133/296/139 131/294/139 124/293/139
f 134/297/140 131/287/140 135/286/140
f 136/298/141 131/290/141 137/289/141
l 138 50
